<svg xmlns="http://www.w3.org/2000/svg" xmlns:xlink="http://www.w3.org/1999/xlink" viewBox="0 0 1041 613.5">
  <g id="metal_farve" class="interact_with" data-name="Layer 2" style="isolation: isolate">
    <path d="M724.5,13.5c2.31-2.49,5.77,1,7,2,4.12,4.22,15.15,10.44,21,19-6.53,16.63-12.59,6.8-13-2a3.16,3.16,0,0,0-4,2.5A55.9,55.9,0,0,0,737,46a34.77,34.77,0,0,1,0,12c-.44,1.91-3.5,3.17-4,3.5-2.24,1.79-8.71.9-11-1-1.5-2.41-3.89-5.86-5-9-4-.06-15.16-1.06-21,0-1.33.24-2,1-2.5,2.5-1.78,2.75,3.62,12.3,4,17.5A70.49,70.49,0,0,1,687,75c0,3.3-6.84-18.36-11-32.5a4.49,4.49,0,0,1,3-4.5c3-.76,9.13.44,13,.5,9.11.14,18.15-.08,28.5,0v-7c.17-5,.08-5.75,2.5-5.5.06-.52,1.59-2.39,2-5C726.05,17.1,723.22,14.82,724.5,13.5Z" fill-rule="evenodd"/>
    <path d="M364,40.5c13.18,9,13.59,27.05,19.5,43.5,2.95,8.21,6.16,17.61,8.5,26.5-4.34,2.84-12.5,5.33-13.5,3.5-1.32-4-3.47-13.89-5-18.5-3.74-11.27-6.88-24-11-35-1.8-4.8-6.24-10.53-3-15.5C360.38,42.66,362.67,42.41,364,40.5Z" fill-rule="evenodd"/>
    <path d="M522,411c11.07,0,51.74-3,51.5-3,5.33.43,5.37,5.13,9,6,3.28.78,4-2.25,6-1.5,2.16,3.53,3.28,10.15,4.5,19.5-3.53,5.21-3.6-2.92-12.5,0-1.8.59-3.52,2.78-5.5,3-4.49.5-5.88-1.5-8-2-3.33-.17-7.74-.38-10,1.5-2.39-.24-2-7.73-3.5-8.5-1.54-1-13.46-.36-31,0a15.62,15.62,0,0,1-1,6c-2.24,5.95-9.07,18.26-13.5,22-12.76,10.78-26.37,13.81-46.5,11.5s-36.94-30.53-36-48C429.06,376,462.27,367.78,475,368,485.05,367.7,520.56,379.6,522,411Z" fill-rule="evenodd"/>
    <path d="M470,380c-4.09,1.23,1,11.69,6,23.5,2.56,2.55,4.26,2.86,6.5,1,5.54-4.59,11.31-8.61,16.5-13.5-.32-.88-.1-.49-.5-1C495.89,382.82,481.15,380,470,380Z" fill="white" fill-rule="evenodd"/>
    <path d="M439,412.5c8.27.1,21.94.89,23.5-1.5,2.49-8.29-2.37-18.48-6-26C452.24,386.15,439.26,398,439,412.5Z" fill="white" fill-rule="evenodd"/>
    <path d="M510,409.5a13,13,0,0,0-4-9.5c-.88.32-.49.1-1,.5a9,9,0,0,0-6,7c1.15.8.75,1.07,2.5,1.5C503.08,410,507.53,409.56,510,409.5Z" fill="white" fill-rule="evenodd"/>
    <path d="M439.5,424.5c-.88,1.54,6.9,20.48,18.5,24,2.43-7.62,5.45-10.44,5.5-20.5C457.46,424.26,448.75,424.44,439.5,424.5Z" fill="white" fill-rule="evenodd"/>
    <path d="M478,430.5c-2.58,2.57-11.24,16-7,21.5,8.29,1,23.61-1.88,28.5-10.5C494,436.07,489.56,431.48,478,430.5Z" fill="white" fill-rule="evenodd"/>
    <path d="M499.5,426.5c2.54-.65,7.77-.24,10-.5.62.92-1,5.08-3,5.5S499.48,427.74,499.5,426.5Z" fill="white" fill-rule="evenodd"/>
  </g>
  <g id="stel_farve" class="interact_with" style="isolation: isolate">
    <path d="M252,377.5c6,1.12,49.07,10.8,52,11.5.47-.28-40.46-2.59-44-3.5-2.49-.64-4.42-2.4-9-2.5C250.27,381.06,250.29,379.72,252,377.5ZM244,363s11.16-14.33,10.5-13c-.19-2.42,17.37-23.24,131.5-199,.51-.4.12-.18,1-.5l1,1c5.73,17.65,56.62,185.72,66.5,221-1.2.61,14.7-4.45,15.5-4.5-3.89-11.19-8.79-28.09-15.5-49.5-.37-2.81.76-3,3-3.5.9-.57.21-3.68-1-4-.81-.52-2.69,1-3.5.5-1.74-3.47-9.29-28.95-9-29.5.75-1.32,2.57-.88,3.5-2,.54-.47.27-2.61-.5-3-2.33-1-4.61.11-5-1-7.84-27.46-30.9-105.14-38.5-128.5-.75-2.67-.11-4.42,1.5-5,2.72-1,19.3-.76,23-.5,1.87.13,1.86,2.09,5.5,2,3.82-.09,3.46-1.61,4.5-2,68.15-3.71,152.23-11.48,261-12.5,2.52,3.72,7,16.68,8.5,23.5-32.86,35.13-39.5,40.9-133,140-1.06-1-1.37-1.61-2.5-1.5-2.36,1-2.12,1.39-3,3,.73.58,1.59,2,2.5,2.5-6.1,5.76-11.69,12.38-21.5,22a5.42,5.42,0,0,0-2.5-2,6.72,6.72,0,0,0-3.5,3c.53,1.57,1.75,2.21,3,3-5.48,6.25-21.11,21.68-49.5,51.5,3.84,1.42,11.27,8.66,13.5,12,26.76-26,55-58.56,201.5-214,1.23-.37,2.29-1.33,3.5,8,4.68-1.44,13.73-3.25,17.5-7-3.43-12.09-9.29-26.65-10-31.5.53-1.49,1-1.83,1-3.5-.74-2.3-1.7-4.13-2.5-6.5-.54-1.61-1-3.58-1.5-5-1.21-2.85-2.55-6.15-4.5-8.5s-9-24.08-10-29c-2,1.43-11,5.58-17.5,6,.83,2.78,5.15,9.68,3.5,12.5v1c-23.47,1.46-92.16,6.18-293,17.5-3.11-3.77-3.73-13.09-6-17.5l-.5-.5c-2.57,3.45-3.87,5.74-11.5,6.5-5.15-1.18-8.77.44-8,0-1.61.54-2,.87-2.5,2.5-.48.87.52,3.25,1,4.5.56.92,6.59-.54,8,.5.69.51,2.36,6.47,3.5,9.5,1.32,5.72-4.63,9.8-6.5,13.5-5.49,9.16-6,10.56-31.5,49.5-3.45,5.27-8.65,13.69-10.5,15.5-2.4,2.36-1.65,5.35-3.5,8-31.66,45.19-87.79,132.56-87,131.5-3.43,4.61-12.9,15.13-11.5,13.5-4.39,0-.81-3.58-3.5-5-3.45-.87-4.49.46-5.5,3.5s-6.52,0-8,2.5a4.36,4.36,0,0,0,.5,6c-3.73.63-2.39,4.54-1,5,2.22,5-2.1,5.32-1.5,8,1.27,1.16,4.16,5,1.5,8.5-1.56,7.8,8.4,6,9,5,1.11-1.33-.62-7.34,0-8s1.83-2.81,3.5-3c8,0,8.39,5.09,18,6,4.11.39,8,.09,11,.5,16.52,2.24,44.94,5.52,46,7.5.54,1-.54,3.46,0,4.5,6.6,1.72,6.15-.57,7.5-4,3.85.47,40.17,7.09,116,15.5a53.71,53.71,0,0,1,4-19.5c-77.21-14.68-137.47-18.77-177-24.5C251.45,371.47,241.69,366.7,244,363Z" fill-rule="evenodd"/>
    <path d="M735.5,181c2,6,3.06,9.83,3,10.5.73,2.42,4,4.36,5,7s.39,5.45,1,7.5c12.32,41.4,38.63,102.9,43,115,11.15,24.91,23.79,39.25,26.5,42,5.46,5.54,11.66,4.5,13.5,9.5,1.11,1.48.77,3.43.5,5.5-1.2,2.56-1.38,4.18-5,6-3.58,2.42-7.78-.13-9.5-2.5-1.22-1.68-2.81-2.88-3-5-.22-2.44.26-4.48-1.5-7a118.23,118.23,0,0,0-8-9.5c-52.68-59.18-60-127.26-70.5-147-1.88-3.06-6.06-5.36-8-8.5-1.72-2.78-1.46-6.31-1.5-8-.08-3.17-.79-4.26-2.5-10C723.21,184.52,730.73,183.51,735.5,181Z" fill-rule="evenodd"/>
    <path d="M322,225.5h1l-.5.5c-.87.66-.8.86-1.5.5l-.5-.5C321.54,225.81,321.46,225.88,322,225.5Z" fill-rule="evenodd"/>
    <path d="M473.5,380.5c.91,3.44,2,8.09,3,13,.28.77,2.8,1.16,3.5.5,2.31-2.28,9.95-10.49,10-10.5,4.17,1.77,10.27,5.7,10,7.5-1.15,1.17-16.4,13.34-18,13.5a5.79,5.79,0,0,1-5.5,0c-1.13-.64-7.58-15.93-8-23.5C469.75,380.32,471.23,380.44,473.5,380.5Z" fill-rule="evenodd"/>
    <path d="M463,402c.11,3.48,1,5.12.5,8-5.93,3.76-13.72,3.06-23.5,3a22.36,22.36,0,0,0-2-3c.34-2,3.35-10.4,4.5-11H448C451,401.07,458.94,401.69,463,402Z" fill-rule="evenodd"/>
  </g>
  <g id="shadow_Image" data-name="shadow Image">
    <image id="shadow_Image-2" data-name="shadow Image" width="2067" height="1214" transform="translate(7.5 6.5) scale(0.5)" xlink:href="img/main_bike1.png"/>
  </g>
</svg>
